<?xml version="1.0" encoding="UTF-8" standalone="no"?>
<!-- Created with Inkscape (http://www.inkscape.org/) -->

<svg
   xmlns:dc="http://purl.org/dc/elements/1.1/"
   xmlns:cc="http://creativecommons.org/ns#"
   xmlns:rdf="http://www.w3.org/1999/02/22-rdf-syntax-ns#"
   xmlns:svg="http://www.w3.org/2000/svg"
   xmlns="http://www.w3.org/2000/svg"
   xmlns:sodipodi="http://sodipodi.sourceforge.net/DTD/sodipodi-0.dtd"
   xmlns:inkscape="http://www.inkscape.org/namespaces/inkscape"
   width="64.08815mm"
   height="12.588103mm"
   viewBox="0 0 160.22038 31.470257"
   version="1.1"
   id="svg8"
   inkscape:version="0.92.4 (5da689c313, 2019-01-14)"
   sodipodi:docname="nat-archive-delivered-cy.svg">
  <defs
     id="defs2" />
  <sodipodi:namedview
     id="base"
     pagecolor="#ffffff"
     bordercolor="#666666"
     borderopacity="1.0"
     inkscape:pageopacity="0.0"
     inkscape:pageshadow="2"
     inkscape:zoom="3.959798"
     inkscape:cx="129.15889"
     inkscape:cy="-57.954266"
     inkscape:document-units="mm"
     inkscape:current-layer="surface50922"
     showgrid="false"
     inkscape:window-width="1920"
     inkscape:window-height="1017"
     inkscape:window-x="-8"
     inkscape:window-y="-8"
     inkscape:window-maximized="1"
     fit-margin-top="0"
     fit-margin-left="0"
     fit-margin-right="0"
     fit-margin-bottom="0" />
  <metadata
     id="metadata5">
    <rdf:RDF>
      <cc:Work
         rdf:about="">
        <dc:format>image/svg+xml</dc:format>
        <dc:type
           rdf:resource="http://purl.org/dc/dcmitype/StillImage" />
        <dc:title></dc:title>
      </cc:Work>
    </rdf:RDF>
  </metadata>
  <g
     inkscape:label="Layer 1"
     inkscape:groupmode="layer"
     id="layer1"
     transform="translate(-10.604105,-17.437487)">
    <g
       id="surface50922"
       transform="matrix(0.35277778,0,0,0.35277778,0.42453714,10.419139)">
      <path
         id="path90"
         d="m 36.148438,27.964844 c -0.433594,-0.640625 -1.101563,-1.078125 -1.742188,-1.078125 -1.214844,0 -2.179687,0.875 -2.179687,3.855469 0,2.980468 0.894531,3.941406 2.179687,3.941406 0.800781,0 1.421875,-0.503906 1.742188,-1.074219 z M 38.625,36.40625 h -1.855469 l -0.367187,-1.171875 h -0.117188 c -0.414062,0.550781 -1.214843,1.402344 -2.773437,1.402344 -2.042969,0 -3.808594,-1.835938 -3.808594,-5.871094 0,-4.128906 1.8125,-5.828125 3.808594,-5.828125 1.261719,0 2.085937,0.644531 2.523437,1.261719 h 0.113282 V 19.894531 H 38.625 V 36.40625"
         style="fill:#ffffff;fill-opacity:0;fill-rule:nonzero;stroke:none"
         inkscape:connector-curvature="0" />
      <path
         id="path92"
         d="m 47.132813,29.386719 c 0.01953,-0.113281 0.04297,-0.296875 0.04297,-0.480469 0,-1.46875 -0.664062,-2.226562 -1.972656,-2.226562 -1.261719,0 -2.039062,0.917968 -2.132812,2.707031 z M 45.179688,24.9375 c 2.707031,0 4.246093,1.71875 4.246093,4.265625 0,0.527344 -0.07031,1.285156 -0.140625,1.835938 h -6.28125 c 0,2.5 0.640625,3.691406 2.15625,3.691406 1.441407,0 1.832032,-1.097656 1.832032,-1.832031 0,-0.07031 0,-0.183594 0,-0.324219 l 2.339843,0.07031 c 0.02344,0.136719 0.02344,0.277344 0.02344,0.390625 0,1.144532 -0.597656,3.601563 -4.195313,3.601563 -3.121093,0 -4.566406,-2.132813 -4.566406,-5.871094 0,-3.304687 1.398438,-5.828125 4.585938,-5.828125"
         style="fill:#ffffff;fill-opacity:0;fill-rule:nonzero;stroke:none"
         inkscape:connector-curvature="0" />
      <path
         id="path94"
         d="m 51.484375,19.894531 h 2.476563 V 36.40625 H 51.484375 V 19.894531"
         style="fill:#ffffff;fill-opacity:0;fill-rule:nonzero;stroke:none"
         inkscape:connector-curvature="0" />
      <path
         id="path96"
         d="m 56.53125,25.167969 h 2.476563 V 36.40625 H 56.53125 Z m 0,-4.519531 h 2.476563 V 23.21875 H 56.53125 v -2.570312"
         style="fill:#ffffff;fill-opacity:0;fill-rule:nonzero;stroke:none"
         inkscape:connector-curvature="0" />
      <path
         id="path98"
         d="m 60.402344,25.328125 v -0.160156 h 2.5 L 64.625,31.613281 c 0.226563,0.824219 0.386719,1.8125 0.503906,2.613282 h 0.207032 c 0.08984,-0.800782 0.273437,-1.742188 0.503906,-2.589844 l 1.742187,-6.46875 h 2.5 v 0.160156 L 66.59375,36.40625 H 63.914063 L 60.402344,25.328125"
         style="fill:#ffffff;fill-opacity:0;fill-rule:nonzero;stroke:none"
         inkscape:connector-curvature="0" />
      <path
         id="path100"
         d="m 77.441406,29.386719 c 0.02344,-0.113281 0.04687,-0.296875 0.04687,-0.480469 0,-1.46875 -0.667968,-2.226562 -1.972656,-2.226562 -1.261719,0 -2.042969,0.917968 -2.132812,2.707031 z M 75.492188,24.9375 c 2.707031,0 4.242187,1.71875 4.242187,4.265625 0,0.527344 -0.07031,1.285156 -0.136719,1.835938 H 73.3125 c 0,2.5 0.644531,3.691406 2.15625,3.691406 1.445313,0 1.835938,-1.097656 1.835938,-1.832031 0,-0.07031 0,-0.183594 0,-0.324219 l 2.339843,0.07031 c 0.01953,0.136719 0.01953,0.277344 0.01953,0.390625 0,1.144532 -0.59375,3.601563 -4.195313,3.601563 -3.121094,0 -4.5625,-2.132813 -4.5625,-5.871094 0,-3.304687 1.398438,-5.828125 4.585938,-5.828125"
         style="fill:#ffffff;fill-opacity:0;fill-rule:nonzero;stroke:none"
         inkscape:connector-curvature="0" />
      <path
         id="path102"
         d="m 84.203125,36.40625 h -2.5 V 25.167969 h 1.835938 l 0.320312,1.511719 h 0.113281 c 0.4375,-0.777344 1.078125,-1.742188 2.433594,-1.742188 1.8125,0 2.429688,1.402344 2.429688,3.140625 0,0.621094 -0.06641,1.148438 -0.160157,1.492188 l -2.203125,-0.136719 c 0.07031,-0.296875 0.09375,-0.644531 0.09375,-0.960938 0,-1.058593 -0.320312,-1.5625 -0.917968,-1.5625 -0.757813,0 -1.261719,0.894532 -1.445313,1.652344 v 7.84375"
         style="fill:#ffffff;fill-opacity:0;fill-rule:nonzero;stroke:none"
         inkscape:connector-curvature="0" />
      <path
         id="path104"
         d="m 96.425781,29.386719 c 0.02344,-0.113281 0.04687,-0.296875 0.04687,-0.480469 0,-1.46875 -0.667968,-2.226562 -1.972656,-2.226562 -1.261719,0 -2.042969,0.917968 -2.132812,2.707031 z M 94.476563,24.9375 c 2.707031,0 4.242187,1.71875 4.242187,4.265625 0,0.527344 -0.07031,1.285156 -0.136719,1.835938 h -6.285156 c 0,2.5 0.644531,3.691406 2.15625,3.691406 1.445313,0 1.835938,-1.097656 1.835938,-1.832031 0,-0.07031 0,-0.183594 0,-0.324219 l 2.339843,0.07031 c 0.01953,0.136719 0.01953,0.277344 0.01953,0.390625 0,1.144532 -0.59375,3.601563 -4.195313,3.601563 -3.117187,0 -4.5625,-2.132813 -4.5625,-5.871094 0,-3.304687 1.398438,-5.828125 4.585938,-5.828125"
         style="fill:#ffffff;fill-opacity:0;fill-rule:nonzero;stroke:none"
         inkscape:connector-curvature="0" />
      <path
         id="path106"
         d="m 106.62891,27.964844 c -0.4375,-0.640625 -1.10157,-1.078125 -1.74219,-1.078125 -1.21484,0 -2.17969,0.875 -2.17969,3.855469 0,2.980468 0.89453,3.941406 2.17969,3.941406 0.80078,0 1.42187,-0.503906 1.74219,-1.074219 z m 2.47656,8.441406 h -1.85938 l -0.36718,-1.171875 h -0.11328 c -0.41407,0.550781 -1.21485,1.402344 -2.77344,1.402344 -2.04297,0 -3.8086,-1.835938 -3.8086,-5.871094 0,-4.128906 1.8125,-5.828125 3.8086,-5.828125 1.26172,0 2.08594,0.644531 2.51953,1.261719 h 0.11719 v -6.304688 h 2.47656 V 36.40625"
         style="fill:#ffffff;fill-opacity:0;fill-rule:nonzero;stroke:none"
         inkscape:connector-curvature="0" />
      <path
         id="path108"
         d="m 118.6875,33.609375 c 0.34375,0.570313 0.94141,1.074219 1.74219,1.074219 1.26172,0 2.17969,-0.960938 2.17969,-3.941406 0,-2.980469 -0.96485,-3.855469 -2.17969,-3.855469 -0.64063,0 -1.32813,0.4375 -1.74219,1.078125 z m -2.47656,-13.714844 h 2.47656 v 6.304688 h 0.0898 c 0.46094,-0.617188 1.28516,-1.261719 2.54688,-1.261719 1.99609,0 3.80859,1.699219 3.80859,5.828125 0,4.035156 -1.76953,5.871094 -3.80859,5.871094 -1.55859,0 -2.36328,-0.851563 -2.79688,-1.402344 h -0.0937 l -0.34375,1.171875 h -1.8789 V 19.894531"
         style="fill:#ffffff;fill-opacity:0;fill-rule:nonzero;stroke:none"
         inkscape:connector-curvature="0" />
      <path
         id="path110"
         d="m 126.50391,39.042969 c 0.5039,0.160156 1.07812,0.230469 1.6289,0.230469 0.80469,0 1.28516,-0.550782 1.5586,-1.699219 l 0.23046,-0.984375 -4.01562,-11.148438 V 25.167969 H 128.5 l 1.87891,6.328125 c 0.2539,0.871094 0.46093,1.742187 0.64453,2.707031 h 0.20703 c 0.13672,-0.964844 0.27344,-1.972656 0.43359,-2.683594 l 1.42188,-6.351562 h 2.57031 v 0.296875 l -3.51172,12.363281 c -0.64062,2.292969 -1.60547,3.394531 -3.66797,3.394531 -0.78125,0 -1.51172,-0.117187 -2.13281,-0.277343 l 0.16016,-1.902344"
         style="fill:#ffffff;fill-opacity:0;fill-rule:nonzero;stroke:none"
         inkscape:connector-curvature="0" />
      <path
         id="path112"
         d="M 28.855469,46.742188 V 109.10156 H 121.39453 V 46.742188 Z m 2.132812,2.128906 H 119.26172 V 106.96875 H 30.988281 V 48.871094"
         style="fill:#211e1e;fill-opacity:1;fill-rule:nonzero;stroke:none"
         inkscape:connector-curvature="0" />
      <path
         id="path114"
         d="M 53.230469,69.15625 H 47.046875 V 65.675781 H 63.386719 V 69.15625 H 57.207031 V 90.164063 H 53.230469 V 69.15625"
         style="fill:#211e1e;fill-opacity:1;fill-rule:nonzero;stroke:none"
         inkscape:connector-curvature="0" />
      <path
         id="path116"
         d="m 64.945313,65.675781 h 3.976562 v 10.328125 h 9.519531 V 65.675781 h 3.976563 V 90.164063 H 78.441406 V 79.515625 H 68.921875 V 90.164063 H 64.945313 V 65.675781"
         style="fill:#211e1e;fill-opacity:1;fill-rule:nonzero;stroke:none"
         inkscape:connector-curvature="0" />
      <path
         id="path118"
         d="m 87.003906,65.675781 h 14.027344 v 3.441407 H 90.980469 v 6.921875 h 8.417969 v 3.441406 H 90.980469 V 86.6875 h 10.050781 v 3.476563 H 87.003906 V 65.675781"
         style="fill:#211e1e;fill-opacity:1;fill-rule:nonzero;stroke:none"
         inkscape:connector-curvature="0" />
      <path
         id="path120"
         d="M 119.23438,46.742188 V 109.10156 H 302.17969 V 46.742188 Z m 2.13281,2.128906 H 300.04687 V 106.96875 H 121.36719 V 48.871094"
         style="fill:#211e1e;fill-opacity:1;fill-rule:nonzero;stroke:none"
         inkscape:connector-curvature="0" />
      <path
         id="path122"
         d="m 141.77344,65.675781 h 4.29687 l 7.31641,14.339844 c 0.64062,1.242188 1.3125,3.121094 1.88281,4.613281 h 0.25 c -0.25,-1.988281 -0.39062,-4.082031 -0.39062,-5.46875 V 65.675781 h 3.9414 v 24.488282 h -4.26172 l -7.21093,-14.089844 c -0.78125,-1.5625 -1.35157,-3.050781 -1.98829,-4.789063 h -0.25 c 0.17969,1.558594 0.39454,3.832032 0.39454,5.710938 v 13.167969 h -3.98047 V 65.675781"
         style="fill:#211e1e;fill-opacity:1;fill-rule:nonzero;stroke:none"
         inkscape:connector-curvature="0" />
      <path
         id="path124"
         d="m 168.39062,65.675781 h 4.83204 l 7.0664,24.488282 h -4.04687 l -1.67188,-5.960938 h -7.52734 l -1.63281,5.960938 h -4.1211 z m 5.4336,15.226563 -1.91797,-7.171875 c -0.35156,-1.273438 -0.63672,-2.519531 -0.99219,-4.328125 h -0.21484 c -0.35156,1.777344 -0.56641,2.945312 -0.95703,4.328125 l -1.95313,7.171875 h 6.03516"
         style="fill:#211e1e;fill-opacity:1;fill-rule:nonzero;stroke:none"
         inkscape:connector-curvature="0" />
      <path
         id="path126"
         d="m 184.58594,69.15625 h -6.17969 v -3.480469 h 16.33594 v 3.480469 h -6.17969 v 21.007813 h -3.97656 V 69.15625"
         style="fill:#211e1e;fill-opacity:1;fill-rule:nonzero;stroke:none"
         inkscape:connector-curvature="0" />
      <path
         id="path128"
         d="m 196.76562,65.675781 h 3.97657 v 24.488282 h -3.97657 V 65.675781"
         style="fill:#211e1e;fill-opacity:1;fill-rule:nonzero;stroke:none"
         inkscape:connector-curvature="0" />
      <path
         id="path130"
         d="m 204.10547,77.957031 c 0,-7.988281 3.48047,-12.636718 9.69531,-12.636718 6.17969,0 9.66016,4.648437 9.66016,12.636718 0,7.949219 -3.48047,12.5625 -9.66016,12.5625 -6.21484,0 -9.69531,-4.613281 -9.69531,-12.5625 m 15.19922,0 c 0,-6.035156 -1.88282,-9.15625 -5.50391,-9.15625 -3.66016,0 -5.50391,3.121094 -5.50391,9.15625 0,5.996094 1.84375,9.085938 5.50391,9.085938 3.62109,0 5.50391,-3.089844 5.50391,-9.085938"
         style="fill:#211e1e;fill-opacity:1;fill-rule:nonzero;stroke:none"
         inkscape:connector-curvature="0" />
      <path
         id="path132"
         d="m 227.03125,65.675781 h 4.29687 l 7.31641,14.339844 c 0.63672,1.242188 1.3125,3.121094 1.88281,4.613281 h 0.2461 c -0.2461,-1.988281 -0.39063,-4.082031 -0.39063,-5.46875 V 65.675781 h 3.94141 v 24.488282 h -4.25781 l -7.21094,-14.089844 c -0.78125,-1.5625 -1.35156,-3.050781 -1.99219,-4.789063 h -0.24609 c 0.17578,1.558594 0.39062,3.832032 0.39062,5.710938 v 13.167969 h -3.97656 V 65.675781"
         style="fill:#211e1e;fill-opacity:1;fill-rule:nonzero;stroke:none"
         inkscape:connector-curvature="0" />
      <path
         id="path134"
         d="m 253.75,65.675781 h 4.82812 l 7.06641,24.488282 h -4.04687 l -1.66797,-5.960938 h -7.53125 l -1.63282,5.960938 h -4.12109 z m 5.43359,15.226563 -1.91797,-7.171875 c -0.35546,-1.273438 -0.64062,-2.519531 -0.99609,-4.328125 h -0.21094 c -0.35937,1.777344 -0.57031,2.945312 -0.96093,4.328125 l -1.95313,7.171875 h 6.03906"
         style="fill:#211e1e;fill-opacity:1;fill-rule:nonzero;stroke:none"
         inkscape:connector-curvature="0" />
      <path
         id="path136"
         d="m 267.80078,65.675781 h 3.98047 V 86.6875 h 9.55469 v 3.476563 H 267.80078 V 65.675781"
         style="fill:#211e1e;fill-opacity:1;fill-rule:nonzero;stroke:none"
         inkscape:connector-curvature="0" />
      <path
         id="path138"
         d="M 300.07812,109.09766 H 483.02344 V 46.742188 H 300.07812 Z m 2.13282,-60.226566 H 480.89062 V 106.96875 H 302.21094 V 48.871094"
         style="fill:#211e1e;fill-opacity:1;fill-rule:nonzero;stroke:none"
         inkscape:connector-curvature="0" />
      <path
         id="path140"
         d="m 325.375,65.605469 h 4.82812 l 7.07032,24.488281 h -4.05078 l -1.66797,-5.960937 h -7.53125 l -1.63282,5.960937 h -4.11718 z m 5.43359,15.226562 -1.91797,-7.171875 c -0.35546,-1.277343 -0.63671,-2.519531 -0.99218,-4.328125 h -0.21485 c -0.35547,1.773438 -0.57031,2.945313 -0.95703,4.328125 l -1.95703,7.171875 h 6.03906"
         style="fill:#211e1e;fill-opacity:1;fill-rule:nonzero;stroke:none"
         inkscape:connector-curvature="0" />
      <path
         id="path142"
         d="m 338.73437,65.605469 h 7.31641 c 5.1875,0 7.67188,2.804687 7.67188,7.523437 0,3.550782 -1.70313,6.386719 -4.22657,7.167969 v 0.214844 c 1.17188,1.3125 4.54688,8.621094 5.46875,9.015625 v 0.566406 h -4.29687 c -1.13672,-0.640625 -4.15625,-8.234375 -5.07813,-8.871094 h -2.875 v 8.871094 h -3.98047 z m 6.9961,12.171875 c 2.8789,0 3.875,-1.84375 3.875,-4.398438 0,-2.488281 -1.10156,-4.402343 -3.875,-4.402343 h -3.05078 v 8.800781 h 3.05078"
         style="fill:#211e1e;fill-opacity:1;fill-rule:nonzero;stroke:none"
         inkscape:connector-curvature="0" />
      <path
         id="path144"
         d="m 360.52734,77.777344 c 0,6.105469 2.13282,9.191406 5.4336,9.191406 3.26953,0 4.58203,-2.304687 4.54687,-5.925781 l 3.97656,0.140625 c 0.0391,0.179687 0.0703,0.5 0.0703,0.675781 0,5.039063 -2.44922,8.589844 -8.5586,8.589844 -5.89453,0 -9.69531,-4.4375 -9.69531,-12.671875 0,-8.054688 3.80078,-12.527344 9.69531,-12.527344 7.35547,0 8.59766,5.289063 8.59766,8.234375 0,0.355469 -0.0391,0.816406 -0.0703,1.027344 l -4.01563,0.144531 c 0.0352,-3.761719 -1.3164,-5.925781 -4.54687,-5.925781 -3.26563,0 -5.4336,3.15625 -5.4336,9.046875"
         style="fill:#211e1e;fill-opacity:1;fill-rule:nonzero;stroke:none"
         inkscape:connector-curvature="0" />
      <path
         id="path146"
         d="m 377.80469,65.605469 h 3.97656 v 10.328125 h 9.51953 V 65.605469 h 3.97656 V 90.09375 h -3.97656 V 79.445313 h -9.51953 V 90.09375 h -3.97656 V 65.605469"
         style="fill:#211e1e;fill-opacity:1;fill-rule:nonzero;stroke:none"
         inkscape:connector-curvature="0" />
      <path
         id="path148"
         d="m 400.53516,65.605469 h 3.97656 V 90.09375 h -3.97656 V 65.605469"
         style="fill:#211e1e;fill-opacity:1;fill-rule:nonzero;stroke:none"
         inkscape:connector-curvature="0" />
      <path
         id="path150"
         d="m 407.74219,65.605469 h 4.15625 l 3.69531,14.089844 c 0.56641,2.199218 0.88672,4.152343 1.27734,6.421875 h 0.28516 c 0.39062,-2.304688 0.71094,-4.222657 1.27734,-6.421875 l 3.66016,-14.089844 h 4.15234 l -6.92578,24.488281 h -4.64844 l -6.92968,-24.488281"
         style="fill:#211e1e;fill-opacity:1;fill-rule:nonzero;stroke:none"
         inkscape:connector-curvature="0" />
      <path
         id="path152"
         d="m 428.96484,65.605469 h 14.02735 v 3.441406 h -10.05078 v 6.921875 h 8.41796 v 3.441406 h -8.41796 v 7.203125 h 10.05078 V 90.09375 H 428.96484 V 65.605469"
         style="fill:#211e1e;fill-opacity:1;fill-rule:nonzero;stroke:none"
         inkscape:connector-curvature="0" />
      <path
         id="path154"
         d="m 449.20312,81.789063 c -0.0351,0.285156 -0.0703,0.601562 -0.0703,0.886718 0,2.199219 0.89063,4.257813 3.90625,4.257813 2.45313,0 3.76563,-1.347656 3.76563,-3.300781 0,-1.773438 -0.78125,-2.800782 -2.5586,-3.441407 l -3.9414,-1.453125 c -2.76953,-1.03125 -4.82813,-2.804687 -4.82813,-6.566406 0,-4.046875 2.66406,-6.921875 7.5625,-6.921875 6.25391,0 7.35547,4.117188 7.35547,6.707031 0,0.390625 -0.0391,0.816407 -0.10937,1.207032 l -3.90625,0.07031 c 0.0351,-0.246094 0.0703,-0.601562 0.0703,-0.851562 0,-1.914063 -0.67578,-3.617188 -3.48047,-3.617188 -2.37891,0 -3.44531,1.417969 -3.44531,3.226563 0,1.988281 1.0664,2.839843 2.52343,3.371093 l 4.01172,1.457032 c 3.01953,1.101562 4.86719,3.015625 4.86719,6.601562 0,4.117188 -2.73437,7.027344 -7.99219,7.027344 -6.71093,0 -7.8125,-4.472656 -7.8125,-7.382813 0,-0.355468 0.0352,-0.746093 0.10547,-1.136718 l 3.97656,-0.140625"
         style="fill:#211e1e;fill-opacity:1;fill-rule:nonzero;stroke:none"
         inkscape:connector-curvature="0" />
    </g>
  </g>
</svg>
