<svg xmlns="http://www.w3.org/2000/svg" viewBox="0 0 166.9 32.78"><path d="M2.57 2.85c-.15-.23-.39-.38-.61-.38-.43 0-.77.3-.77 1.36 0 1.05.31 1.39.77 1.39.28 0 .5-.18.61-.38zm.88 2.97h-.66l-.13-.4h-.04c-.15.19-.43.49-.98.49C.92 5.9.3 5.26.3 3.84c0-1.46.64-2.06 1.34-2.06.45 0 .74.23.9.44h.03V0h.88v5.82m3-2.47l.01-.17c0-.52-.23-.79-.7-.79-.44 0-.71.33-.75.96zm-.7-1.57c.96 0 1.5.6 1.5 1.5 0 .19-.02.46-.04.65H4.99c0 .88.23 1.3.76 1.3.51 0 .65-.38.65-.64v-.12l.82.03.01.14c0 .4-.2 1.27-1.48 1.27-1.1 0-1.6-.76-1.6-2.07 0-1.17.48-2.06 1.6-2.06M7.98 0h.88v5.82h-.88V0m1.78 1.86h.88v3.96h-.88zm0-1.6h.88v.91h-.88v-.9m1.37 1.65v-.06H12l.6 2.27c.09.3.15.64.19.93h.07c.03-.29.1-.62.18-.92l.61-2.28h.88v.06l-1.23 3.9h-.94l-1.24-3.9m6.02 1.43l.02-.17c0-.52-.24-.79-.7-.79-.44 0-.72.33-.75.96zm-.69-1.57c.96 0 1.5.6 1.5 1.5 0 .19-.03.46-.05.65h-2.22c0 .88.23 1.3.76 1.3.51 0 .65-.38.65-.64v-.12l.83.03v.14c0 .4-.2 1.27-1.48 1.27-1.1 0-1.6-.76-1.6-2.07 0-1.17.49-2.06 1.61-2.06m3.08 4.04h-.89V1.86h.65l.11.53h.04c.16-.27.38-.61.86-.61.64 0 .86.5.86 1.1 0 .23-.02.41-.06.53l-.77-.04c.02-.11.03-.23.03-.34 0-.38-.11-.56-.32-.56-.27 0-.45.32-.51.59v2.76m4.31-2.47l.01-.17c0-.52-.23-.79-.7-.79-.44 0-.71.33-.74.96zm-.69-1.57c.95 0 1.5.6 1.5 1.5 0 .19-.03.46-.05.65h-2.22c0 .88.23 1.3.76 1.3.51 0 .65-.38.65-.64v-.12l.82.03.01.14c0 .4-.2 1.27-1.48 1.27-1.1 0-1.6-.76-1.6-2.07 0-1.17.49-2.06 1.61-2.06m4.29 1.07c-.16-.23-.4-.38-.62-.38-.43 0-.77.3-.77 1.36 0 1.05.32 1.39.77 1.39.28 0 .5-.18.62-.38zm.87 2.97h-.66l-.13-.4h-.04c-.14.19-.42.49-.97.49-.72 0-1.35-.65-1.35-2.07 0-1.46.64-2.06 1.35-2.06.44 0 .73.23.89.44h.04V0h.87v5.82m3.39-.98c.11.2.32.38.6.38.45 0 .77-.34.77-1.4 0-1.04-.34-1.35-.76-1.35-.23 0-.47.15-.62.38zM30.81 0h.87v2.22h.03c.17-.21.46-.44.9-.44.7 0 1.34.6 1.34 2.06 0 1.42-.62 2.07-1.34 2.07-.55 0-.83-.3-.99-.5h-.03l-.12.41h-.66V0m3.64 6.76c.18.05.38.08.57.08.29 0 .46-.2.55-.6l.08-.35-1.41-3.93v-.1h.91l.67 2.23c.08.31.16.62.22.96h.08c.04-.34.1-.7.15-.95l.5-2.24h.9v.1l-1.23 4.37c-.23.8-.57 1.2-1.3 1.2-.27 0-.53-.05-.75-.1l.06-.67M0 9.47v22h32.65v-22zm.75.75H31.9v20.5H.75v-20.5"/><path d="M8.6 17.38H6.42v-1.23h5.76v1.23H10v7.41H8.6v-7.41m4.13-1.23h1.4v3.64h3.36v-3.64h1.4v8.64h-1.4v-3.76h-3.36v3.76h-1.4v-8.64m7.78 0h4.95v1.21h-3.54v2.45h2.97v1.21h-2.97v2.54h3.54v1.23h-4.95v-8.64m11.37-6.68v22h64.54v-22zm.76.75h63.03v20.5H32.64v-20.5"/><path d="M39.83 16.15h1.52l2.58 5.06c.23.44.46 1.1.67 1.63h.08a17 17 0 0 1-.13-1.93v-4.76h1.39v8.64h-1.5l-2.55-4.97c-.28-.55-.48-1.08-.7-1.7h-.09c.06.56.14 1.36.14 2.02v4.65h-1.4v-8.64m9.38 0h1.71l2.5 8.64h-1.44l-.59-2.1h-2.65l-.58 2.1h-1.45zm1.92 5.37L50.47 19c-.13-.45-.23-.89-.35-1.52h-.08c-.12.62-.2 1.03-.34 1.52l-.69 2.53h2.13m3.8-4.15h-2.18v-1.23h5.76v1.23h-2.18v7.41h-1.4v-7.41m4.29-1.23h1.4v8.64h-1.4v-8.64m2.59 4.33c0-2.81 1.23-4.45 3.42-4.45 2.18 0 3.41 1.64 3.41 4.45 0 2.8-1.23 4.43-3.4 4.43-2.2 0-3.43-1.62-3.43-4.43m5.37 0c0-2.13-.67-3.23-1.95-3.23-1.29 0-1.94 1.1-1.94 3.23 0 2.12.65 3.2 1.94 3.2 1.28 0 1.95-1.08 1.95-3.2m2.72-4.33h1.52L74 21.21c.22.44.46 1.1.66 1.63h.09c-.09-.7-.14-1.44-.14-1.93v-4.76h1.4v8.64h-1.5l-2.55-4.97c-.28-.55-.48-1.08-.7-1.7h-.1c.07.56.14 1.36.14 2.02v4.65h-1.4v-8.64m9.44 0h1.7l2.5 8.64H82.1l-.6-2.1h-2.65l-.58 2.1h-1.45zm1.91 5.37L80.58 19c-.13-.45-.23-.89-.35-1.52h-.08c-.12.62-.2 1.03-.34 1.52l-.69 2.53h2.13m3.05-5.38h1.4v7.41h3.37v1.23h-4.78v-8.64m11.39 15.32h64.54v-22H95.68zm.75-21.25h63.04v20.5H96.43v-20.5"/><path d="M104.6 16.13h1.7l2.5 8.63h-1.43l-.58-2.1h-2.66l-.58 2.1h-1.45zm1.92 5.37l-.67-2.53a19.4 19.4 0 0 1-.35-1.53h-.08c-.13.63-.2 1.04-.34 1.53l-.69 2.53h2.13m2.8-5.37h2.58c1.83 0 2.7.99 2.7 2.65 0 1.25-.6 2.25-1.49 2.53v.07c.42.47 1.6 3.05 1.93 3.18v.2h-1.51c-.4-.22-1.47-2.9-1.8-3.12h-1v3.12h-1.41zm2.47 4.29c1.01 0 1.36-.65 1.36-1.55 0-.88-.39-1.55-1.36-1.55h-1.08v3.1h1.08m5.21 0c0 2.15.76 3.24 1.92 3.24s1.62-.81 1.6-2.09l1.41.05.02.24c0 1.78-.86 3.03-3.01 3.03-2.08 0-3.42-1.57-3.42-4.47 0-2.84 1.34-4.42 3.42-4.42 2.6 0 3.03 1.87 3.03 2.9 0 .13-.02.3-.03.37l-1.41.05c.01-1.33-.47-2.1-1.6-2.1-1.16 0-1.92 1.12-1.92 3.2m6.09-4.29h1.4v3.64h3.36v-3.64h1.4v8.63h-1.4v-3.75h-3.36v3.75h-1.4v-8.63m8.02 0h1.4v8.63h-1.4v-8.63m2.54 0h1.47l1.3 4.97c.2.77.32 1.46.45 2.26h.1c.14-.81.25-1.49.45-2.26l1.3-4.97h1.46l-2.44 8.63h-1.64l-2.45-8.63m7.49 0h4.95v1.21h-3.55v2.44h2.97V21h-2.97v2.54h3.55v1.22h-4.95v-8.63m7.14 5.71l-.03.3c0 .78.32 1.51 1.38 1.51.87 0 1.33-.48 1.33-1.16 0-.63-.27-1-.9-1.22l-1.4-.51c-.97-.37-1.7-1-1.7-2.32 0-1.43.94-2.44 2.67-2.44 2.2 0 2.6 1.45 2.6 2.37 0 .13-.02.28-.04.42l-1.38.03.03-.3c0-.68-.24-1.28-1.23-1.28-.84 0-1.22.5-1.22 1.14 0 .7.38 1 .9 1.19l1.4.51c1.07.4 1.72 1.07 1.72 2.33 0 1.45-.96 2.48-2.81 2.48-2.37 0-2.76-1.58-2.76-2.6 0-.13.01-.27.04-.4l1.4-.05"/></svg>