<?xml version="1.0" encoding="utf-8"?>
<!-- Generator: Adobe Illustrator 23.0.3, SVG Export Plug-In . SVG Version: 6.00 Build 0)  -->
<svg version="1.1" id="Layer_1" xmlns="http://www.w3.org/2000/svg" xmlns:xlink="http://www.w3.org/1999/xlink" x="0px" y="0px"
	 viewBox="50% 50% 1500 210" style="enable-background:new 0 0 249.93 34.48;" xml:space="preserve">
<style type="text/css">
	.st0{fill:#000000;}
	.st1{fill:none;}
	.st2{fill:#FCFCFC;}
</style>
<g>
	<path class="st0" d="M1.17,1.17h48.58v31.97H1.17V1.17z M0,0v33.14v1.17h50.92v-1.17V0H0z"/>
	<polygon class="st0" points="13.41,12.33 10.01,12.33 10.01,10.42 19,10.42 19,12.33 15.6,12.33 15.6,23.9 13.41,23.9 	"/>
	<polygon class="st0" points="19.86,10.42 22.05,10.42 22.05,16.1 27.29,16.1 27.29,10.42 29.48,10.42 29.48,23.9 27.29,23.9 
		27.29,18.04 22.05,18.04 22.05,23.9 19.86,23.9 	"/>
	<polygon class="st0" points="32,10.42 39.72,10.42 39.72,12.31 34.19,12.31 34.19,16.12 38.82,16.12 38.82,18.02 34.19,18.02 
		34.19,21.98 39.72,21.98 39.72,23.9 32,23.9 	"/>
	<path class="st0" d="M50.91,1.17h49.75h48.58v31.97H50.91V1.17z M49.74,0v1.17v33.14h100.67V0H49.74z"/>
	<path class="st0" d="M62.14,10.42h2.36l4.03,7.89c0.35,0.68,0.72,1.72,1.04,2.54h0.14c-0.14-1.09-0.21-2.25-0.21-3.01v-7.42h2.17
		V23.9h-2.35l-3.97-7.75c-0.43-0.86-0.74-1.68-1.09-2.64h-0.14c0.1,0.86,0.21,2.11,0.21,3.14v7.25h-2.19V10.42z"/>
	<path class="st0" d="M79.78,18.8l-1.06-3.95c-0.2-0.7-0.35-1.39-0.55-2.38h-0.12c-0.19,0.98-0.31,1.62-0.53,2.38l-1.07,3.95H79.78z
		 M76.79,10.42h2.66l3.89,13.48h-2.23l-0.92-3.28h-4.14l-0.9,3.28h-2.27L76.79,10.42z"/>
	<rect class="st1" width="249.93" height="34.32"/>
	<polygon class="st0" points="85.7,12.33 82.3,12.33 82.3,10.42 91.29,10.42 91.29,12.33 87.89,12.33 87.89,23.9 85.7,23.9 	"/>
	<rect x="92.4" y="10.42" class="st0" width="2.19" height="13.48"/>
	<path class="st0" d="M104.8,17.18c0-3.32-1.04-5.04-3.03-5.04c-2.01,0-3.03,1.72-3.03,5.04c0,3.3,1.02,5,3.03,5
		C103.77,22.18,104.8,20.48,104.8,17.18 M96.44,17.18c0-4.39,1.92-6.95,5.34-6.95c3.4,0,5.32,2.56,5.32,6.95
		c0,4.37-1.92,6.91-5.32,6.91C98.35,24.09,96.44,21.55,96.44,17.18"/>
	<path class="st0" d="M109.06,10.42h2.36l4.03,7.89c0.35,0.68,0.72,1.72,1.04,2.54h0.14c-0.14-1.09-0.21-2.25-0.21-3.01v-7.42h2.17
		V23.9h-2.35l-3.97-7.75c-0.43-0.86-0.74-1.68-1.09-2.64h-0.14c0.1,0.86,0.21,2.11,0.21,3.14v7.25h-2.19V10.42z"/>
	<path class="st0" d="M126.75,18.8l-1.06-3.95c-0.2-0.7-0.35-1.39-0.55-2.38h-0.12c-0.2,0.98-0.31,1.62-0.53,2.38l-1.07,3.95H126.75
		z M123.76,10.42h2.66l3.89,13.48h-2.23l-0.92-3.28h-4.14l-0.9,3.28h-2.27L123.76,10.42z"/>
	<rect class="st1" width="249.93" height="34.32"/>
	<polygon class="st0" points="131.49,10.42 133.68,10.42 133.68,21.98 138.94,21.98 138.94,23.9 131.49,23.9 	"/>
	<path class="st0" d="M150.43,1.17h98.33v31.97h-98.33V1.17z M149.25,34.32h100.67V0H149.25V34.32z"/>
	<path class="st0" d="M166.17,18.76l-1.06-3.95c-0.2-0.7-0.35-1.39-0.55-2.38h-0.12c-0.2,0.98-0.31,1.62-0.53,2.38l-1.07,3.95
		H166.17z M163.18,10.38h2.66l3.89,13.48h-2.23l-0.92-3.28h-4.14l-0.9,3.28h-2.27L163.18,10.38z"/>
	<path class="st0" d="M174.38,17.08c1.58,0,2.13-1.02,2.13-2.42c0-1.37-0.61-2.42-2.13-2.42h-1.68v4.84H174.38z M170.53,10.38h4.03
		c2.85,0,4.22,1.54,4.22,4.14c0,1.95-0.94,3.52-2.33,3.94v0.12c0.64,0.72,2.5,4.75,3.01,4.96v0.31h-2.36
		c-0.63-0.35-2.29-4.53-2.8-4.88h-1.58v4.88h-2.19V10.38z"/>
	<path class="st0" d="M182.52,17.08c0,3.36,1.17,5.06,2.99,5.06c1.8,0,2.52-1.27,2.5-3.26l2.19,0.08c0.02,0.1,0.04,0.27,0.04,0.37
		c0,2.77-1.35,4.73-4.71,4.73c-3.24,0-5.34-2.44-5.34-6.97c0-4.43,2.09-6.89,5.34-6.89c4.05,0,4.73,2.91,4.73,4.53
		c0,0.2-0.02,0.45-0.04,0.57l-2.21,0.08c0.02-2.07-0.72-3.26-2.5-3.26C183.71,12.1,182.52,13.84,182.52,17.08"/>
	<polygon class="st0" points="192.03,10.38 194.22,10.38 194.22,16.06 199.45,16.06 199.45,10.38 201.64,10.38 201.64,23.86 
		199.45,23.86 199.45,18 194.22,18 194.22,23.86 192.03,23.86 	"/>
	<rect x="204.54" y="10.38" class="st0" width="2.19" height="13.48"/>
	<path class="st0" d="M208.5,10.38h2.29l2.03,7.75c0.31,1.21,0.49,2.28,0.7,3.53h0.16c0.22-1.27,0.39-2.32,0.7-3.53l2.01-7.75h2.29
		l-3.81,13.48h-2.56L208.5,10.38z"/>
	<polygon class="st0" points="220.18,10.38 227.9,10.38 227.9,12.28 222.37,12.28 222.37,16.08 227,16.08 227,17.98 222.37,17.98 
		222.37,21.94 227.9,21.94 227.9,23.86 220.18,23.86 	"/>
	<path class="st0" d="M231.32,19.29c-0.02,0.16-0.04,0.33-0.04,0.49c0,1.21,0.49,2.34,2.15,2.34c1.35,0,2.07-0.74,2.07-1.82
		c0-0.98-0.43-1.54-1.41-1.89l-2.17-0.8c-1.52-0.57-2.66-1.54-2.66-3.61c0-2.23,1.47-3.81,4.16-3.81c3.44,0,4.05,2.27,4.05,3.69
		c0,0.21-0.02,0.45-0.06,0.66l-2.15,0.04c0.02-0.14,0.04-0.33,0.04-0.47c0-1.05-0.37-1.99-1.92-1.99c-1.31,0-1.9,0.78-1.9,1.78
		c0,1.09,0.59,1.56,1.39,1.86l2.21,0.8c1.66,0.61,2.68,1.66,2.68,3.63c0,2.27-1.5,3.87-4.4,3.87c-3.69,0-4.3-2.46-4.3-4.06
		c0-0.19,0.02-0.41,0.06-0.62L231.32,19.29z"/>
</g>
</svg>
